PathFileType	4	(X/Y/Z)	 s11c0202.trc
DataRate	CameraRate	NumFrames	NumMarkers	Units	OrigDataRate	OrigDataStartFrame	OrigNumFrames
200	200	6	48	mm	200	501	2000
Frame#	Time	racr			lacr			c7			jug			rlel			rdr			llel			ldr			s2			lic			ric			lasi			rasi			rpsi			lpsi			rgt			lgt			rth1			rth2			rth3			rth4			rlfc			rmfc			rsh1			rsh2			rsh3			rsh4			rlmal			rcal			rtoe			rmt5			lth1			lth2			lth4			lth3			llfc			lmfc			llmal			lcal			lmt5			lsh1			lsh2			lsh3			lsh4			ltoe			SBIKE			LBIKE			RBIKE			
		X1	Y1	Z1	X2	Y2	Z2	X3	Y3	Z3	X4	Y4	Z4	X5	Y5	Z5	X6	Y6	Z6	X7	Y7	Z7	X8	Y8	Z8	X9	Y9	Z9	X10	Y10	Z10	X11	Y11	Z11	X12	Y12	Z12	X13	Y13	Z13	X14	Y14	Z14	X15	Y15	Z15	X16	Y16	Z16	X17	Y17	Z17	X18	Y18	Z18	X19	Y19	Z19	X20	Y20	Z20	X21	Y21	Z21	X22	Y22	Z22	X23	Y23	Z23	X24	Y24	Z24	X25	Y25	Z25	X26	Y26	Z26	X27	Y27	Z27	X28	Y28	Z28	X29	Y29	Z29	X30	Y30	Z30	X31	Y31	Z31	X32	Y32	Z32	X33	Y33	Z33	X34	Y34	Z34	X35	Y35	Z35	X36	Y36	Z36	X37	Y37	Z37	X38	Y38	Z38	X39	Y39	Z39	X40	Y40	Z40	X41	Y41	Z41	X42	Y42	Z42	X43	Y43	Z43	X44	Y44	Z44	X45	Y45	Z45	X46	Y46	Z46	X47	Y47	Z47	X48	Y48	Z48	
501	2.5050	478.805709	1419.622309	-70.081757	496.055588	1420.772754	-404.467843	403.616859	1528.874116	-244.802412	444.846102	1354.745361	-247.895201	539.542100	1156.453183	27.822835	766.858567	971.913795	-30.573394	519.604937	1132.870197	-553.689601	779.386861	964.762598	-457.614385	-115.648233	1200.654312	-238.830878	99.723584	1244.307000	-441.119152	105.466619	1207.822284	-42.015814	126.362164	1176.225948	-399.661124	139.903556	1145.948898	-76.774230	-71.524891	1270.156615	-182.394256	-85.767592	1270.923870	-274.107735	46.341471	1045.308476	-39.025983	25.876691	1130.140440	-463.495995	136.070239	930.686027	-35.226390	201.916863	871.895339	-45.587473	232.497013	791.912643	-65.752352	230.789007	894.430659	-53.685302	293.540755	706.069868	-86.033056	288.009000	686.828314	-209.256605	255.456250	552.264911	-66.209222	258.676407	465.687793	-82.967990	219.970183	387.298765	-83.209797	283.121898	463.188351	-114.523123	183.887848	254.533173	-94.988730	120.876298	245.686683	-143.111622	397.086966	168.121687	-132.927015	322.968500	151.958274	-64.854885	164.521520	1081.843254	-476.843132	249.870501	1075.688469	-473.991468	262.692281	1107.522072	-459.032351	324.372821	1025.923057	-481.613534	450.829387	958.932641	-460.129243	464.107459	947.763342	-329.620192	170.370837	640.706964	-415.035119	101.115402	632.086543	-376.456620	253.943521	490.481245	-441.190580	373.271688	863.081976	-472.232021	339.991188	786.437237	-451.088711	270.638327	732.268538	-441.978102	366.210863	771.233511	-427.399811	347.549142	463.817792	-372.831768	-204.319372	953.571788	-262.126934	1.615958	82.521614	-461.092454	-15.147222	81.152404	-62.404131	
502	2.5100	480.327183	1419.422442	-72.119829	496.313164	1418.956882	-406.141715	404.626656	1528.091329	-246.596725	444.794006	1353.597683	-249.425192	540.139821	1156.373512	27.274706	766.809831	972.141929	-30.809510	518.341225	1130.919028	-555.872578	779.093071	964.921943	-457.694500	-115.529310	1200.711688	-237.751868	99.565149	1244.424318	-440.876515	105.735065	1208.017638	-41.430007	126.183574	1177.126470	-398.489496	140.184264	1146.443307	-75.960068	-71.325333	1270.309621	-181.334282	-85.991975	1271.132048	-272.816556	46.236840	1044.551307	-38.362665	26.034785	1131.383936	-462.731722	134.162401	929.028211	-35.029289	201.597962	870.891638	-44.200577	232.274438	790.802619	-64.365541	230.484777	893.500835	-52.307339	294.081294	705.520017	-84.265606	288.020371	686.267545	-208.363169	254.338515	551.941833	-65.584424	256.996635	465.451649	-82.406806	217.654502	387.354160	-82.847083	281.548461	462.853727	-113.936987	180.640812	254.848440	-95.067531	117.660090	247.263552	-143.190948	392.670776	165.487745	-132.953375	318.243920	150.355183	-65.005614	164.808686	1083.452828	-475.956449	250.165779	1077.494152	-473.116307	262.903751	1109.435287	-458.207923	324.791255	1027.967274	-480.798044	451.542426	961.589927	-459.827162	465.015886	950.475224	-329.245607	173.839495	641.031141	-414.913544	104.497660	631.693841	-376.420880	258.790232	491.776301	-441.096734	375.079388	865.037886	-471.870480	342.308818	788.293750	-450.864087	273.499406	733.489667	-441.617640	368.827353	773.226055	-426.872335	352.593987	466.258682	-372.784363	-204.302087	953.578170	-262.077884	1.598639	82.518292	-461.071482	-15.151597	81.149506	-62.364745	
503	2.5150	481.746138	1419.387833	-74.235555	496.524427	1417.113307	-407.841613	405.642912	1526.980141	-248.369286	444.801524	1352.435335	-251.605765	540.685248	1156.140666	26.695204	766.603891	972.349800	-31.183391	516.990798	1128.855337	-558.110858	778.556678	965.075473	-457.536279	-115.440639	1200.691538	-236.654401	99.324979	1244.456639	-440.553454	106.056739	1208.232563	-40.965559	125.962585	1177.955834	-397.273978	140.521387	1146.923289	-75.299876	-71.097878	1270.278294	-180.224830	-85.975780	1271.456016	-271.694260	46.160724	1043.888752	-37.622160	26.142001	1132.493600	-461.941448	132.592104	926.054159	-33.550420	201.445004	870.043906	-42.821842	232.250125	790.025294	-62.982695	230.262012	892.621286	-50.927105	294.353809	704.868379	-82.989898	288.425714	685.859240	-207.340900	253.449762	551.927385	-64.917612	255.436125	465.219012	-81.847883	215.458612	387.693696	-82.482027	279.983960	462.605374	-113.409068	177.444857	255.494485	-94.866474	114.437716	248.862810	-143.225044	388.185426	162.977383	-133.153462	313.522546	148.860802	-65.118427	165.149191	1084.866627	-475.169271	250.453849	1079.109168	-472.342982	263.061631	1111.070424	-457.447246	325.180167	1029.758334	-479.932128	452.124939	964.051583	-459.532081	465.821922	952.993928	-328.863037	177.196693	641.087005	-414.788246	107.691351	631.057002	-376.378009	263.756006	492.980835	-441.134746	376.674112	866.930025	-471.483732	344.501007	789.851935	-450.550681	276.132671	734.505700	-441.284742	371.135814	775.059114	-426.615295	357.743364	468.637504	-372.572574	-204.308311	953.574426	-262.010166	1.613211	82.534360	-461.087121	-15.172218	81.134104	-62.388001	
504	2.5200	483.229641	1419.172131	-76.291667	497.155202	1415.439024	-409.848119	406.707174	1525.906286	-250.434155	444.763244	1351.054565	-253.587990	541.043182	1155.962523	26.347271	766.171787	972.437887	-31.856619	515.583193	1126.581350	-560.344693	778.353725	965.238940	-458.094787	-115.442021	1200.616171	-235.515642	99.008443	1244.462661	-440.291913	106.290901	1208.419034	-40.595291	125.566873	1178.623065	-395.875875	140.856548	1147.404484	-74.718546	-70.902826	1270.215892	-179.109545	-86.168434	1271.436183	-270.473028	46.221947	1043.246257	-36.731158	26.220892	1133.423392	-461.153941	132.623696	925.185965	-32.510811	201.481661	869.210372	-41.445841	232.425289	789.364647	-61.599212	230.236592	891.955821	-49.593277	294.923400	704.356659	-81.706788	288.908084	685.645045	-206.447774	252.683274	552.029918	-64.228819	253.987089	465.330179	-81.270005	213.446762	388.101221	-82.053108	278.580801	462.527712	-112.647640	174.467289	256.292044	-94.735027	111.385864	250.698100	-143.233861	383.668251	160.540606	-133.210133	308.824649	147.605246	-65.261302	165.308341	1085.981135	-474.394433	250.679153	1080.460723	-471.653731	263.225435	1112.541221	-456.735642	325.500159	1031.315518	-479.128094	452.507451	966.352000	-459.325779	466.421990	955.267168	-328.447554	180.352881	641.016808	-414.554165	110.777790	630.152388	-376.346284	268.612125	494.036438	-441.064439	378.038154	868.587573	-471.169227	346.469851	791.329186	-450.309885	278.524393	735.440611	-440.935418	373.302124	776.676754	-426.508556	362.870535	470.864785	-372.425580	-204.448121	953.694551	-261.902408	1.614164	82.545339	-461.096422	-15.146582	81.159632	-62.368124	
505	2.5250	484.640052	1418.919826	-78.323397	497.177334	1413.441568	-411.747633	407.704507	1524.508449	-252.319152	444.659648	1349.502831	-255.748609	541.285621	1155.649713	26.198889	765.796182	972.446386	-32.502660	513.910779	1124.175246	-562.225558	777.904222	965.338239	-458.410612	-115.530374	1200.651381	-234.349967	98.476581	1244.347193	-439.797934	106.659367	1208.589694	-40.243240	125.328261	1179.395538	-395.045516	141.189041	1147.854902	-74.200105	-70.713292	1270.084391	-177.955039	-86.314846	1271.513311	-269.201140	46.315052	1042.580020	-36.046388	26.259180	1134.210736	-460.400891	132.700116	924.546446	-31.411746	201.562660	868.784287	-40.114858	232.735257	788.930108	-60.177143	230.413897	891.564001	-48.187759	295.426651	704.013378	-80.794168	289.779497	685.535583	-205.424936	252.046782	552.226294	-63.494521	252.597039	465.668049	-80.675006	211.380078	388.846136	-81.571942	277.405758	462.650765	-111.992007	171.487253	257.450728	-94.820392	108.505759	252.829059	-143.300671	379.124065	158.123514	-133.391156	304.271646	146.052715	-65.496234	165.456593	1087.085066	-473.784020	250.808563	1081.682253	-471.055420	263.333906	1113.827603	-456.190256	325.750698	1032.591639	-478.288701	452.799319	968.322607	-459.070766	466.941212	957.340821	-328.011846	183.410758	640.633355	-414.327726	113.785390	628.905716	-376.325134	273.506112	494.909973	-441.176702	379.130514	870.106015	-470.861897	348.213130	792.518370	-450.074451	280.672698	736.234326	-440.576824	375.199895	778.011674	-426.349518	367.954126	473.057603	-372.240826	-204.464626	953.679676	-261.873728	1.596040	82.544141	-461.091087	-15.116415	81.167283	-62.459915	
506	2.5300	486.100460	1418.553897	-80.191897	497.273918	1411.378802	-413.693263	408.865616	1523.108963	-254.463210	445.317490	1347.978030	-256.917233	541.444809	1155.349265	26.264444	765.430888	972.430963	-33.166125	512.480290	1121.765367	-564.298718	777.456645	965.422235	-458.753348	-115.616753	1200.533954	-233.178766	97.778902	1244.210623	-439.127222	107.110477	1208.702411	-39.876452	124.894604	1179.728543	-393.630620	141.546240	1148.247298	-73.842003	-70.579130	1270.000091	-176.788214	-85.851669	1271.349795	-268.242139	46.439169	1041.997778	-35.299020	26.362524	1135.095827	-459.904885	132.691331	923.983981	-30.201312	201.897599	868.336842	-38.881035	233.369030	788.473921	-58.945273	230.575021	891.226695	-47.012739	296.143343	703.935323	-79.793070	291.096526	685.771504	-204.388183	251.561584	552.582032	-62.739222	251.346018	466.029341	-80.079860	209.409411	389.571701	-81.214165	276.174469	462.803055	-111.301286	168.600655	258.676816	-94.505541	105.569276	255.397612	-143.281101	374.608025	155.989735	-133.462006	299.536106	145.013813	-65.665173	165.540789	1087.803297	-472.971991	250.925431	1082.687816	-470.475917	263.388454	1114.882363	-455.622128	325.812394	1033.712324	-477.589317	452.949219	970.118172	-458.717736	467.359136	959.264246	-327.619010	186.386380	640.056788	-414.068014	116.708873	627.306638	-376.247601	278.401216	495.625435	-441.156333	380.056791	871.472353	-470.519558	349.744501	793.575875	-449.739884	282.735926	736.662355	-440.250701	377.004228	779.228688	-426.249044	373.093707	475.253351	-372.077610	-204.468450	953.695970	-261.771743	1.611049	82.541022	-461.085144	-15.145936	81.144188	-62.383355	
